<?xml version="1.0" encoding="UTF-8" standalone="no"?>
<svg version="1.1" xmlns="http://www.w3.org/2000/svg" xmlns:xlink="http://www.w3.org/1999/xlink" width="2499.84" height="1500">
	<defs>
		<clipPath id="clip_dp_001" clipPathUnits="userSpaceOnUse">
			<path d="M -4.93067,35.3613 L 2479.08,35.3613 L 2479.08,1497.32 L -4.93067,1497.32 Z "/>
		</clipPath>
		<clipPath id="clip_dp_002" clipPathUnits="userSpaceOnUse">
			<path d="M -4.93067,35.3613 L 2479.08,35.3613 L 2479.08,1497.32 L -4.93067,1497.32 Z "/>
		</clipPath>
		<clipPath id="clip_dp_003" clipPathUnits="userSpaceOnUse">
			<path d="M -4.93067,35.3613 L 2479.08,35.3613 L 2479.08,1497.32 L -4.93067,1497.32 Z "/>
		</clipPath>
		<clipPath id="clip_dp_004" clipPathUnits="userSpaceOnUse">
			<path d="M -4.93067,35.3613 L 2479.08,35.3613 L 2479.08,1497.32 L -4.93067,1497.32 Z "/>
		</clipPath>
		<clipPath id="clip_dp_005" clipPathUnits="userSpaceOnUse">
			<path d="M -4.93067,35.3613 L 2479.08,35.3613 L 2479.08,1497.32 L -4.93067,1497.32 Z "/>
		</clipPath>
	</defs>
	<path id="dp_path001" clip-path="url(#clip_dp_001)" fill="#e65c00" fill-rule="evenodd" d="M 1915.8,1990.97 C 1367.34,2012.32 908.181,1632 890.251,1141.49 C 872.32,650.98 1302.4,236.047 1850.87,214.703 C 1361.64,233.741 979.572,646.805 997.504,1137.31 C 1015.43,1627.82 1426.57,2010.01 1915.8,1990.97 Z "/>
	<path id="dp_path002" clip-path="url(#clip_dp_002)" fill="#88cc00" fill-rule="evenodd" d="M 1949.08,1871.31 C 1456.57,1890.48 1043.68,1533.13 1026.87,1073.16 C 1010.05,613.185 1395.68,224.768 1888.19,205.601 C 1507.97,220.399 1213.37,605.275 1230.19,1065.25 C 1247,1525.22 1568.86,1886.11 1949.08,1871.31 Z "/>
	<path id="dp_path003" clip-path="url(#clip_dp_003)" fill="#88cc00" fill-rule="evenodd" d="M 1057.51,1234.89 C 1196.91,1531.62 1242.09,1566.54 1255.94,1682.46 C 1296.99,1953.52 940.78,1930.01 1014.97,1666.56 C 1043.03,1553.41 1092.15,1524.7 1057.51,1234.89 Z "/>
	<path id="dp_path004" clip-path="url(#clip_dp_004)" fill="#0077b3" fill-rule="evenodd" d="M 1705.67,224.344 C 1722.48,656.22 921.136,1040.1 -84.1893,1081.76 C -1089.52,1123.42 -1918.12,807.087 -1934.93,375.211 C -1921.82,712.073 -1096.21,951.385 -90.8867,909.724 C 914.439,868.064 1718.78,561.208 1705.67,224.344 Z "/>
	<path id="dp_path005" clip-path="url(#clip_dp_005)" fill="#646464" fill-rule="evenodd" d="M 1922.42,2017.69 C 1412.87,2037.52 985.007,1648.91 966.757,1149.7 C 948.508,650.488 1346.79,229.727 1856.34,209.897 C 1391.62,227.981 1029.7,647.331 1047.95,1146.53 C 1066.19,1645.75 1457.71,2035.77 1922.42,2017.69 Z "/>
</svg>